<?xml version="1.0" standalone="no"?>
<!DOCTYPE svg PUBLIC "-//W3C//DTD SVG 1.1//EN" "http://www.w3.org/Graphics/SVG/1.1/DTD/svg11.dtd">
<svg width="100%" height="100%" viewBox="0 0 800 200" version="1.1" xmlns="http://www.w3.org/2000/svg" xmlns:xlink="http://www.w3.org/1999/xlink" xml:space="preserve" style="fill-rule:evenodd;clip-rule:evenodd;stroke-miterlimit:1.41421;">
    <g transform="matrix(0.826235,0,0,0.826235,65.7879,-46.3307)">
        <g id="Layer1">
            <g>
                <g transform="matrix(2.69971,0,0,2.69971,-390.37,-414.482)">
                    <path d="M245.8,228.343C245.8,223.026 244.013,218.443 240.438,214.593C236.954,210.834 232.737,208.955 227.788,208.955C225.313,208.955 223.204,209.505 221.462,210.605C222.104,209.505 222.929,208.497 223.938,207.58C227.329,204.28 231.5,202.63 236.45,202.63C241.217,202.63 245.433,204.418 249.1,207.993C253.958,212.851 256.388,219.13 256.388,226.83C256.388,235.538 253.042,243.238 246.35,249.93C239.292,257.08 229.667,260.655 217.475,260.655C207.575,260.655 198.729,257.676 190.938,251.718C189.746,250.709 188.875,249.93 188.325,249.38C187.225,248.28 186.675,246.905 186.675,245.255C186.675,243.697 187.225,242.322 188.325,241.13C189.425,240.03 190.754,239.48 192.313,239.48C193.779,239.48 195.063,239.938 196.163,240.855C203.496,247.088 211.288,250.205 219.538,250.205C227.788,250.205 234.525,247.593 239.75,242.368C243.783,238.334 245.8,233.659 245.8,228.343ZM236.45,200.568C231.133,200.568 226.596,202.355 222.837,205.93C218.987,209.413 217.063,213.63 217.063,218.58C217.063,221.055 217.658,223.163 218.85,224.905C217.658,224.263 216.65,223.438 215.825,222.43C212.433,219.038 210.737,214.868 210.737,209.918C210.737,205.151 212.571,200.934 216.237,197.268C221.004,192.409 227.237,189.98 234.938,189.98C243.737,189.98 251.437,193.326 258.037,200.018C265.188,207.076 268.763,216.701 268.763,228.893C268.763,238.793 265.783,247.638 259.825,255.43C258.908,256.622 258.175,257.538 257.625,258.18C256.433,259.28 255.013,259.83 253.363,259.83C251.804,259.83 250.475,259.234 249.375,258.043C248.183,256.943 247.587,255.613 247.587,254.055C247.587,252.588 248.046,251.305 248.962,250.205C255.287,242.872 258.45,235.08 258.45,226.83C258.45,218.58 255.837,211.843 250.613,206.618C246.487,202.584 241.767,200.568 236.45,200.568ZM208.675,209.918C208.675,215.234 210.462,219.772 214.038,223.53C217.521,227.38 221.783,229.305 226.825,229.305C229.208,229.305 231.271,228.709 233.013,227.518C232.462,228.709 231.683,229.718 230.675,230.543C227.283,233.934 223.067,235.63 218.025,235.63C213.258,235.63 209.087,233.797 205.513,230.13C200.654,225.363 198.225,219.13 198.225,211.43C198.225,202.63 201.571,194.93 208.263,188.33C215.321,181.18 224.946,177.605 237.138,177.605C246.946,177.605 255.746,180.584 263.538,186.543C264.821,187.459 265.737,188.193 266.288,188.743C267.388,189.934 267.938,191.355 267.938,193.005C267.938,194.563 267.388,195.893 266.288,196.993C265.188,198.184 263.813,198.78 262.162,198.78C260.696,198.78 259.458,198.322 258.45,197.405C251.117,191.08 243.325,187.918 235.075,187.918C226.733,187.918 219.95,190.53 214.725,195.755C210.692,199.88 208.675,204.601 208.675,209.918ZM218.025,237.693C223.342,237.693 227.925,235.951 231.775,232.468C235.533,228.893 237.412,224.584 237.413,219.543C237.412,217.159 236.863,215.097 235.763,213.355C236.863,213.905 237.871,214.684 238.788,215.693C242.087,219.084 243.737,223.301 243.738,228.343C243.737,233.109 241.95,237.28 238.375,240.855C233.517,245.713 227.237,248.143 219.538,248.143C210.829,248.143 203.129,244.797 196.438,238.105C189.288,231.047 185.712,221.468 185.712,209.368C185.712,199.468 188.692,190.668 194.65,182.968C195.658,181.593 196.438,180.63 196.987,180.08C198.087,178.98 199.462,178.43 201.112,178.43C202.671,178.43 204.046,178.98 205.237,180.08C206.337,181.18 206.888,182.555 206.888,184.205C206.888,185.672 206.429,186.909 205.513,187.918C199.279,195.251 196.163,203.043 196.163,211.293C196.163,219.634 198.775,226.418 204,231.643C208.033,235.676 212.708,237.693 218.025,237.693Z" style="fill:rgb(224,53,33);fill-rule:nonzero;"/>
                </g>
                <g transform="matrix(2.69971,0,0,2.69971,-719.492,-412.789)">
                    <path d="M428.319,195.498L427.06,199.397C424.788,198.742 422.752,198.415 420.951,198.415C419.231,198.415 418.049,198.901 417.404,199.873C416.76,200.845 416.437,202.805 416.437,205.753L416.437,206.336L427.183,206.336L427.183,210.481L416.437,210.481L416.437,238.328L411.648,238.328L411.648,210.481L403.604,210.481L403.604,206.336L411.648,206.336L411.648,205.261C411.648,201.188 412.344,198.333 413.735,196.696C415.127,195.058 417.532,194.239 420.951,194.239C423.161,194.239 425.617,194.659 428.319,195.498Z" style="fill:rgb(63,63,63);fill-rule:nonzero;stroke-width:1.87px;stroke:rgb(63,63,63);"/>
                    <path d="M460.025,238.328L455.235,238.328L455.235,233.6C451.797,237.264 448.174,239.095 444.367,239.095C438.369,239.095 435.371,235.462 435.371,228.196L435.371,206.336L440.16,206.336L440.16,226.814C440.16,229.537 440.59,231.568 441.45,232.909C442.31,234.25 443.763,234.92 445.81,234.92C448.737,234.92 451.878,233.098 455.235,229.455L455.235,206.336L460.025,206.336L460.025,238.328Z" style="fill:rgb(63,63,63);fill-rule:nonzero;stroke-width:1.87px;stroke:rgb(63,63,63);"/>
                    <path d="M476.379,226.262C473.391,227.715 471.897,228.994 471.897,230.1C471.897,230.693 472.24,231.195 472.925,231.604C473.611,232.013 474.547,232.218 475.734,232.218L486.511,231.911C489.069,231.911 491.06,232.535 492.483,233.784C493.905,235.032 494.616,236.803 494.616,239.095C494.616,242.718 492.999,245.604 489.765,247.753C486.531,249.903 482.755,250.977 478.436,250.977C474.895,250.977 471.999,250.235 469.748,248.751C467.496,247.267 466.37,245.348 466.37,242.995C466.37,240.436 468.11,238.277 471.59,236.516C468.704,235.166 467.261,233.508 467.261,231.543C467.261,229.291 469.123,227.193 472.848,225.249C471.129,224.205 469.809,222.854 468.888,221.196C467.967,219.538 467.506,217.788 467.506,215.946C467.506,212.937 468.53,210.466 470.576,208.531C472.623,206.597 475.182,205.63 478.252,205.63C480.463,205.63 482.458,206.09 484.239,207.012L493.726,205.569L493.726,210.235L487.616,210.235C488.537,211.852 488.998,213.756 488.998,215.946C488.998,218.852 487.985,221.309 485.958,223.314C483.932,225.32 481.363,226.323 478.252,226.323C477.597,226.323 476.973,226.303 476.379,226.262ZM478.252,222.608C480.012,222.608 481.45,221.999 482.566,220.781C483.681,219.564 484.239,217.972 484.239,216.007C484.239,213.94 483.697,212.323 482.612,211.156C481.527,209.99 480.074,209.406 478.252,209.406C476.553,209.406 475.126,210.015 473.969,211.233C472.813,212.451 472.234,214.042 472.234,216.007C472.234,217.931 472.813,219.512 473.969,220.751C475.126,221.989 476.553,222.608 478.252,222.608ZM478.436,247.262C481.588,247.262 484.275,246.561 486.496,245.159C488.716,243.757 489.827,242.022 489.827,239.955C489.827,237.826 488.251,236.762 485.099,236.762C484.055,236.762 482.254,236.823 479.695,236.946C478.078,237.028 476.809,237.069 475.888,237.069C475.438,237.069 474.737,237.437 473.785,238.174C472.833,238.911 472.106,239.653 471.605,240.4C471.104,241.147 470.853,241.92 470.853,242.718C470.853,243.967 471.549,245.036 472.941,245.927C474.332,246.817 476.164,247.262 478.436,247.262Z" style="fill:rgb(63,63,63);fill-rule:nonzero;stroke-width:1.87px;stroke:rgb(63,63,63);"/>
                    <path d="M525.186,222.485L503.234,222.485C503.234,226.108 504.283,229.097 506.381,231.451C508.479,233.804 511.053,234.981 514.103,234.981C517.009,234.981 520.008,234.459 523.098,233.415L523.927,237.253C521.103,238.522 517.807,239.157 514.041,239.157C509.292,239.157 505.465,237.632 502.558,234.582C499.652,231.532 498.199,227.418 498.199,222.24C498.199,217.164 499.504,213.116 502.113,210.097C504.723,207.078 508.095,205.569 512.23,205.569C515.914,205.569 518.994,206.971 521.471,209.775C523.948,212.579 525.186,216.314 525.186,220.981L525.186,222.485ZM519.967,218.586C519.967,216.089 519.189,213.986 517.633,212.277C516.078,210.568 514.338,209.713 512.414,209.713C509.937,209.713 507.885,210.532 506.258,212.169C504.631,213.807 503.725,215.946 503.541,218.586L519.967,218.586Z" style="fill:rgb(63,63,63);fill-rule:nonzero;stroke-width:1.87px;stroke:rgb(63,63,63);"/>
                </g>
            </g>
        </g>
    </g>
</svg>
